<svg version="1.1" x="0" y="0" width="100%" height="100%" viewBox="0 0 48 48" xmlns="http://www.w3.org/2000/svg" xmlns:xlink="http://www.w3.org/1999/xlink">
  <style type="text/css">.st2{stroke:none;stroke-width:1;stroke-linecap:butt;stroke-linejoin:miter;fill:#f0f3ff;fill-opacity:1;fill-rule:nonZero;}
.st3{stroke:none;stroke-width:1;stroke-linecap:butt;stroke-linejoin:miter;fill:#f0f3ff;fill-opacity:1;fill-rule:nonZero;}
.st4{stroke:none;stroke-width:1;stroke-linecap:butt;stroke-linejoin:miter;fill:#f0f3ff;fill-opacity:1;fill-rule:nonZero;}
.st5{stroke:none;stroke-width:1;stroke-linecap:butt;stroke-linejoin:miter;fill:#dee3f3;fill-opacity:1;fill-rule:nonZero;}
.st6{stroke:none;stroke-width:1;stroke-linecap:butt;stroke-linejoin:miter;fill:#dee3f3;fill-opacity:1;fill-rule:nonZero;}
.st7{stroke:none;stroke-width:1;stroke-linecap:butt;stroke-linejoin:miter;fill:#dee3f3;fill-opacity:1;fill-rule:nonZero;}
.st8{stroke:none;stroke-width:1;stroke-linecap:butt;stroke-linejoin:miter;fill:#dee3f3;fill-opacity:1;fill-rule:nonZero;}
.st9{stroke:none;stroke-width:1;stroke-linecap:butt;stroke-linejoin:miter;fill:#dee3f3;fill-opacity:1;fill-rule:nonZero;}
.st10{stroke:none;stroke-width:1;stroke-linecap:butt;stroke-linejoin:miter;fill:#dee3f3;fill-opacity:1;fill-rule:nonZero;}
.st11{stroke:none;stroke-width:1;stroke-linecap:butt;stroke-linejoin:miter;fill:none;}
.st12{stroke:none;stroke-width:1;stroke-linecap:butt;stroke-linejoin:miter;fill:none;}
.st13{stroke:none;stroke-width:1;stroke-linecap:butt;stroke-linejoin:miter;fill:none;}
.st14{stroke:none;stroke-width:1;stroke-linecap:butt;stroke-linejoin:miter;fill:none;}
.st15{stroke:none;stroke-width:1;stroke-linecap:butt;stroke-linejoin:miter;fill:none;}
.st16{stroke:none;stroke-width:1;stroke-linecap:butt;stroke-linejoin:miter;fill:none;}
.st17{stroke:none;stroke-width:1;stroke-linecap:butt;stroke-linejoin:miter;fill:none;}
.st18{stroke:none;stroke-width:1;stroke-linecap:butt;stroke-linejoin:miter;fill:none;}
.st19{stroke:none;stroke-width:1;stroke-linecap:butt;stroke-linejoin:miter;fill:none;}
.st20{stroke:none;stroke-width:1;stroke-linecap:butt;stroke-linejoin:miter;fill:none;}
.st21{stroke:none;stroke-width:1;stroke-linecap:butt;stroke-linejoin:miter;fill:none;}
.st22{stroke:none;stroke-width:1;stroke-linecap:butt;stroke-linejoin:miter;fill:none;}
.st23{stroke:none;stroke-width:1;stroke-linecap:butt;stroke-linejoin:miter;fill:none;}
.st24{stroke:none;stroke-width:1;stroke-linecap:butt;stroke-linejoin:miter;fill:#13d2cb;fill-opacity:1;fill-rule:nonZero;}
.st25{stroke:none;stroke-width:1;stroke-linecap:butt;stroke-linejoin:miter;fill:#13d2cb;fill-opacity:1;fill-rule:nonZero;}
.st26{stroke:none;stroke-width:1;stroke-linecap:butt;stroke-linejoin:miter;fill:#5369f5;fill-opacity:1;fill-rule:nonZero;}
.st27{stroke:none;stroke-width:1;stroke-linecap:butt;stroke-linejoin:miter;fill:#5369f5;fill-opacity:1;fill-rule:nonZero;}
.st28{stroke:none;stroke-width:1;stroke-linecap:butt;stroke-linejoin:miter;fill:#5369f5;fill-opacity:1;fill-rule:nonZero;}
.st29{stroke:none;stroke-width:1;stroke-linecap:butt;stroke-linejoin:miter;fill:#13d2cb;fill-opacity:1;fill-rule:nonZero;}
.st30{stroke:none;stroke-width:1;stroke-linecap:butt;stroke-linejoin:miter;fill:#78a2ff;fill-opacity:1;fill-rule:nonZero;}
.st31{stroke:none;stroke-width:1;stroke-linecap:butt;stroke-linejoin:miter;fill:#13d2cb;fill-opacity:1;fill-rule:nonZero;}
.st32{stroke:none;stroke-width:1;stroke-linecap:butt;stroke-linejoin:miter;fill:#5369f5;fill-opacity:1;fill-rule:nonZero;}
.st33{stroke:none;stroke-width:1;stroke-linecap:butt;stroke-linejoin:miter;fill:#5369f5;fill-opacity:1;fill-rule:nonZero;}
.st34{stroke:none;stroke-width:1;stroke-linecap:butt;stroke-linejoin:miter;fill:#78a2ff;fill-opacity:1;fill-rule:nonZero;}
.st35{stroke:none;stroke-width:1;stroke-linecap:butt;stroke-linejoin:miter;fill:#78a2ff;fill-opacity:1;fill-rule:nonZero;}
.st36{stroke:none;stroke-width:1;stroke-linecap:butt;stroke-linejoin:miter;fill:#ffc247;fill-opacity:1;fill-rule:nonZero;}
.st37{stroke:none;stroke-width:1;stroke-linecap:butt;stroke-linejoin:miter;fill:#fdffbf;fill-opacity:1;fill-rule:nonZero;}
.st38{stroke:none;stroke-width:1;stroke-linecap:butt;stroke-linejoin:miter;fill:#ffee6e;fill-opacity:1;fill-rule:nonZero;}
.st39{stroke:none;stroke-width:1;stroke-linecap:butt;stroke-linejoin:miter;fill:#3b51c4;fill-opacity:1;fill-rule:nonZero;}
.st40{stroke:none;stroke-width:1;stroke-linecap:butt;stroke-linejoin:miter;fill:#5b87f5;fill-opacity:1;fill-rule:nonZero;}
.st41{stroke:none;stroke-width:1;stroke-linecap:butt;stroke-linejoin:miter;fill:#00bfb7;fill-opacity:1;fill-rule:nonZero;}
.st42{stroke:none;stroke-width:1;stroke-linecap:butt;stroke-linejoin:miter;fill:#70ffef;fill-opacity:1;fill-rule:nonZero;}
.st43{stroke:none;stroke-width:1;stroke-linecap:butt;stroke-linejoin:miter;fill:#78a2ff;fill-opacity:1;fill-rule:nonZero;}
.st44{stroke:none;stroke-width:1;stroke-linecap:butt;stroke-linejoin:miter;fill:#a6c9ff;fill-opacity:1;fill-rule:nonZero;}
.st45{stroke:none;stroke-width:1;stroke-linecap:butt;stroke-linejoin:miter;fill:#ffe45c;fill-opacity:1;fill-rule:nonZero;}
.st46{stroke:none;stroke-width:1;stroke-linecap:butt;stroke-linejoin:miter;fill:#f6fafd;fill-opacity:1;fill-rule:nonZero;}
.st47{stroke:none;stroke-width:1;stroke-linecap:butt;stroke-linejoin:miter;fill:#f6fafd;fill-opacity:1;fill-rule:nonZero;}
.st48{stroke:none;stroke-width:1;stroke-linecap:butt;stroke-linejoin:miter;fill:#f6fafd;fill-opacity:1;fill-rule:nonZero;}
.st49{stroke:none;stroke-width:1;stroke-linecap:butt;stroke-linejoin:miter;fill:#f6fafd;fill-opacity:1;fill-rule:nonZero;}</style>
  <defs/>
  <g id="_23-atom">
    <path class="st2" id="椭圆1" d="M 23.962048396793154 0.9499999999999993 C 30.037128396793154 0.9499999999999993 34.96204839679315 11.24756 34.96204839679315 23.95 C 34.96204839679315 36.65244 30.037128396793154 46.95 23.962048396793154 46.95 C 17.886968396793154 46.95 12.962048396793154 36.65244 12.962048396793154 23.95 C 12.962048396793154 11.24756 17.886968396793154 0.9499999999999993 23.962048396793154 0.9499999999999993  Z "/>
    <path class="st3" id="椭圆2" d="M 18.45196796390131 14.175999736785888 C 30.793299421947985 7.165782657496214 43.2747612608278 5.842846064573285 46.3297974977167 11.221169501543041 C 49.38483373460558 16.599492938512796 41.85665944544651 26.642582240931272 29.51532798739985 33.65279932022095 C 17.173996529353172 40.663016399510624 4.692534690473346 41.98595299243354 1.6374984535844614 36.60762955546379 C -1.4175377833044234 31.229306118494033 6.110636505854636 21.18621681607556 18.45196796390131 14.175999736785888  Z "/>
    <path class="st4" id="椭圆3" d="M 1.6374984535844614 11.24237044453621 C 4.692534690473346 5.864047007566455 17.173996529353172 7.186983600489377 29.51532798739985 14.197200679779051 C 41.85665944544651 21.207417759068726 49.38483373460558 31.250507061487202 46.3297974977167 36.62883049845696 C 43.2747612608278 42.007153935426714 30.793299421947985 40.684217342503786 18.45196796390131 33.67400026321411 C 6.110636505854636 26.663783183924433 -1.4175377833044234 16.620693881505964 1.6374984535844614 11.24237044453621  Z "/>
    <path class="st5" id="路径1" d="M 15.462048396793154 31.849999999999998 C 18.162048396793153 33.64999999999999 21.062048396793156 35.14999999999999 24.062048396793156 36.45 C 21.362048396793156 37.650000000000006 18.662048396793157 38.55 15.862048396793156 39.150000000000006 C 14.762048396793157 36.35000000000001 13.962048396793156 33.45 13.562048396793156 30.450000000000003 C 14.062048396793154 30.95 14.762048396793155 31.45 15.462048396793154 31.849999999999998  Z "/>
    <path class="st6" id="路径2" d="M 32.56204839679316 16.05 C 29.862048396793156 14.25 26.962048396793154 12.75 23.962048396793154 11.450000000000001 C 26.662048396793153 10.250000000000002 29.362048396793153 9.350000000000001 32.16204839679315 8.75 C 33.26204839679316 11.55 34.06204839679316 14.45 34.46204839679315 17.45 C 33.862048396793156 16.95 33.26204839679315 16.45 32.56204839679316 16.05  Z "/>
    <path class="st7" id="路径3" d="M 15.462048396793154 16.05 C 14.762048396793155 16.45 14.162048396793153 16.95 13.462048396793154 17.45 C 13.862048396793154 14.45 14.662048396793153 11.549999999999999 15.762048396793155 8.75 C 18.562048396793156 9.35 21.362048396793153 10.35 23.962048396793154 11.45 C 20.962048396793154 12.75 18.162048396793153 14.25 15.462048396793154 16.05  Z "/>
    <path class="st8" id="路径4" d="M 32.56204839679316 31.849999999999998 C 33.26204839679316 31.45 33.862048396793156 30.95 34.56204839679316 30.45 C 34.16204839679315 33.45 33.362048396793156 36.349999999999994 32.26204839679316 39.150000000000006 C 29.462048396793158 38.55 26.662048396793157 37.55 24.06204839679316 36.45 C 26.962048396793154 35.150000000000006 29.862048396793153 33.650000000000006 32.56204839679316 31.849999999999998  Z "/>
    <path class="st9" id="路径5" d="M 13.462048396793154 17.349999999999998 C 12.862048396793154 21.749999999999996 12.862048396793154 26.15 13.462048396793154 30.45 C 10.762048396793155 28.65 8.262048396793155 26.45 5.962048396793154 23.95 C 8.262048396793155 21.45 10.762048396793155 19.25 13.462048396793154 17.349999999999998  Z "/>
    <path class="st10" id="路径6" d="M 34.56204839679316 30.55 C 34.862048396793156 28.35 35.06204839679316 26.150000000000002 35.06204839679316 23.95 C 35.06204839679316 21.75 34.862048396793156 19.55 34.56204839679316 17.349999999999998 C 37.26204839679316 19.249999999999996 39.76204839679316 21.45 42.06204839679316 23.95 C 39.76204839679315 26.45 37.26204839679315 28.65 34.56204839679316 30.55  Z "/>
    <path class="st11" id="路径7" d="M 33.06204839679316 32.75 C 30.962048396793154 34.14999999999999 28.762048396793155 35.349999999999994 26.462048396793154 36.45 C 28.162048396793153 37.05 29.762048396793155 37.650000000000006 31.562048396793156 38.05 C 32.26204839679315 36.25 32.76204839679315 34.45 33.06204839679316 32.75 C 33.06204839679316 32.75 33.06204839679316 32.75 33.06204839679316 32.75  Z "/>
    <path class="st12" id="路径8" d="M 5.962048396793154 25.45 C 3.562048396793154 28.25 2.1620483967931543 31.05 1.9620483967931541 33.349999999999994 C 1.7620483967931542 34.75 2.262048396793154 36.14999999999999 3.262048396793154 37.05 C 5.3620483967931545 38.95 9.362048396793153 39.349999999999994 14.262048396793155 38.349999999999994 C 13.362048396793154 35.95 12.762048396793155 33.45 12.362048396793154 30.95 C 10.162048396793153 29.45 7.962048396793154 27.55 5.962048396793154 25.45  Z "/>
    <path class="st13" id="路径9" d="M 14.862048396793154 32.75 C 14.862048396793154 32.75 14.862048396793154 32.75 14.862048396793154 32.75 C 15.162048396793155 34.55 15.662048396793155 36.349999999999994 16.362048396793153 38.05 C 18.062048396793152 37.64999999999999 19.76204839679315 37.05 21.462048396793154 36.44999999999999 C 19.162048396793153 35.349999999999994 16.962048396793154 34.05 14.862048396793154 32.75  Z "/>
    <path class="st14" id="路径10" d="M 17.162048396793153 39.95 C 18.962048396793154 43.650000000000006 21.362048396793153 45.95 23.962048396793154 45.95 C 26.562048396793156 45.95 28.962048396793154 43.650000000000006 30.762048396793155 39.95 C 28.462048396793154 39.349999999999994 26.162048396793157 38.55 23.962048396793154 37.650000000000006 C 21.762048396793155 38.55 19.462048396793154 39.349999999999994 17.162048396793153 39.95  Z "/>
    <path class="st15" id="路径11" d="M 12.162048396793153 28.349999999999998 C 12.062048396793154 26.95 11.962048396793154 25.45 11.962048396793154 23.95 C 11.962048396793154 22.45 12.062048396793154 20.95 12.162048396793153 19.55 C 10.462048396793154 20.95 8.862048396793154 22.349999999999998 7.3620483967931545 23.95 C 8.862048396793154 25.55 10.462048396793154 26.95 12.162048396793153 28.349999999999998  Z "/>
    <path class="st16" id="路径12" d="M 41.96204839679315 22.45 C 44.362048396793156 19.65 45.76204839679315 16.849999999999998 45.96204839679315 14.549999999999999 C 46.16204839679315 13.149999999999999 45.66204839679315 11.75 44.66204839679315 10.849999999999998 C 43.26204839679315 9.549999999999999 41.06204839679316 8.95 38.362048396793156 8.95 C 36.76204839679315 8.95 35.16204839679315 9.149999999999999 33.56204839679316 9.45 C 34.46204839679315 11.85 35.06204839679316 14.35 35.46204839679315 16.849999999999998 C 37.76204839679315 18.55 39.96204839679315 20.349999999999998 41.96204839679315 22.45  Z "/>
    <path class="st17" id="路径13" d="M 12.462048396793154 16.849999999999998 C 12.862048396793154 14.349999999999998 13.462048396793154 11.849999999999998 14.362048396793154 9.449999999999998 C 12.762048396793155 9.149999999999999 11.162048396793153 8.95 9.562048396793154 8.95 C 6.862048396793154 8.95 4.662048396793153 9.549999999999999 3.262048396793154 10.75 C 2.262048396793154 11.75 1.762048396793154 13.05 1.962048396793154 14.45 C 2.162048396793154 16.75 3.5620483967931538 19.55 5.962048396793154 22.349999999999998 C 7.962048396793154 20.349999999999998 10.162048396793153 18.55 12.462048396793154 16.849999999999998  Z "/>
    <path class="st18" id="路径14" d="M 35.76204839679315 19.55 C 35.862048396793156 20.95 35.96204839679315 22.45 35.96204839679315 23.95 C 35.96204839679315 25.45 35.862048396793156 26.95 35.76204839679315 28.349999999999998 C 37.46204839679315 27.049999999999997 39.062048396793145 25.549999999999997 40.562048396793145 23.95 C 39.16204839679315 22.349999999999998 37.46204839679315 20.95 35.76204839679315 19.55  Z "/>
    <path class="st19" id="路径15" d="M 35.46204839679315 31.05 C 35.06204839679316 33.55 34.46204839679315 36.05 33.56204839679316 38.45 C 38.46204839679315 39.349999999999994 42.56204839679316 39.05 44.56204839679316 37.150000000000006 C 45.56204839679316 36.150000000000006 46.06204839679316 34.85000000000001 45.862048396793156 33.45 C 45.66204839679315 31.15 44.26204839679315 28.349999999999998 41.862048396793156 25.55 C 39.96204839679315 27.55 37.76204839679315 29.349999999999998 35.46204839679315 31.05  Z "/>
    <path class="st20" id="路径16" d="M 33.06204839679316 15.149999999999999 C 33.06204839679316 15.149999999999999 33.06204839679316 15.149999999999999 33.06204839679316 15.149999999999999 C 32.76204839679316 13.349999999999998 32.26204839679316 11.549999999999999 31.562048396793156 9.849999999999998 C 29.862048396793156 10.249999999999998 28.162048396793157 10.849999999999998 26.462048396793154 11.449999999999998 C 28.762048396793155 12.549999999999999 30.962048396793154 13.85 33.06204839679316 15.149999999999999  Z "/>
    <path class="st21" id="路径17" d="M 14.862048396793154 15.149999999999999 C 16.962048396793154 13.749999999999998 19.162048396793153 12.549999999999999 21.462048396793154 11.45 C 19.762048396793155 10.85 18.062048396793156 10.25 16.362048396793153 9.85 C 15.662048396793153 11.649999999999999 15.162048396793153 13.45 14.862048396793154 15.149999999999999 C 14.862048396793154 15.149999999999999 14.862048396793154 15.149999999999999 14.862048396793154 15.149999999999999  Z "/>
    <path class="st22" id="路径18" d="M 30.762048396793155 7.949999999999999 C 28.962048396793154 4.249999999999999 26.562048396793156 1.9499999999999993 23.962048396793154 1.9499999999999993 C 21.362048396793153 1.9499999999999993 18.962048396793154 4.249999999999999 17.162048396793153 7.949999999999999 C 19.462048396793154 8.549999999999999 21.76204839679315 9.35 23.962048396793154 10.25 C 26.162048396793153 9.35 28.462048396793154 8.549999999999999 30.762048396793155 7.949999999999999  Z "/>
    <path class="st23" id="路径19" d="M 23.962048396793154 12.549999999999999 C 21.162048396793153 13.749999999999998 18.462048396793154 15.25 15.962048396793154 16.849999999999998 C 15.462048396793154 17.249999999999996 14.862048396793154 17.549999999999997 14.362048396793154 17.95 C 13.862048396793154 21.95 13.862048396793154 25.95 14.362048396793154 29.95 C 14.862048396793154 30.349999999999998 15.362048396793154 30.65 15.962048396793154 31.05 C 18.562048396793156 32.75 21.162048396793153 34.150000000000006 23.962048396793154 35.349999999999994 C 26.762048396793155 34.14999999999999 29.462048396793154 32.64999999999999 31.962048396793154 31.049999999999997 C 32.46204839679315 30.65 33.06204839679316 30.349999999999998 33.56204839679316 29.949999999999996 C 33.862048396793156 27.949999999999996 33.96204839679315 25.949999999999996 33.96204839679315 23.949999999999996 C 33.96204839679315 21.949999999999996 33.862048396793156 19.949999999999996 33.56204839679316 17.949999999999996 C 33.06204839679316 17.549999999999997 32.56204839679316 17.249999999999996 31.962048396793154 16.849999999999994 C 29.462048396793154 15.25 26.762048396793155 13.75 23.962048396793154 12.549999999999999  Z "/>
    <path class="st24" id="路径20" d="M 14.862048396793154 15.25 C 15.262048396793155 13.45 15.762048396793155 11.65 16.362048396793153 9.95 C 15.662048396793153 9.75 14.962048396793152 9.649999999999999 14.362048396793153 9.549999999999999 C 13.462048396793152 11.95 12.862048396793153 14.45 12.462048396793152 16.95 C 13.262048396793155 16.25 14.062048396793154 15.75 14.862048396793154 15.25  Z "/>
    <path class="st25" id="路径21" d="M 13.962048396793154 23.95 C 13.962048396793154 21.95 14.062048396793154 19.95 14.362048396793154 17.95 C 13.562048396793154 18.45 12.862048396793154 19.05 12.162048396793153 19.55 C 12.062048396793154 20.95 11.962048396793154 22.45 11.962048396793154 23.95 C 11.962048396793154 25.45 12.062048396793154 26.95 12.162048396793153 28.349999999999998 C 12.862048396793153 28.95 13.562048396793154 29.45 14.362048396793153 29.95 C 14.062048396793154 27.95 13.962048396793154 25.95 13.962048396793154 23.95  Z "/>
    <path class="st26" id="路径22" d="M 26.562048396793156 11.45 C 28.262048396793155 10.85 29.962048396793154 10.25 31.662048396793157 9.85 C 31.362048396793156 9.15 31.162048396793157 8.549999999999999 30.862048396793156 7.949999999999999 C 28.562048396793156 8.549999999999999 26.26204839679316 9.35 24.062048396793156 10.25 C 24.862048396793153 10.649999999999999 25.662048396793153 11.049999999999999 26.562048396793156 11.45  Z "/>
    <path class="st27" id="路径23" d="M 31.962048396793154 31.05 C 29.362048396793153 32.75 26.762048396793155 34.150000000000006 23.962048396793154 35.349999999999994 C 24.862048396793153 35.75 25.662048396793153 36.05 26.562048396793156 36.45 C 28.862048396793156 35.349999999999994 31.062048396793156 34.150000000000006 33.16204839679315 32.75 C 33.16204839679315 32.75 33.16204839679315 32.75 33.16204839679315 32.75 C 33.362048396793156 31.849999999999998 33.46204839679315 30.949999999999996 33.66204839679315 30.049999999999997 C 33.06204839679316 30.349999999999998 32.56204839679316 30.65 31.962048396793154 31.05  Z "/>
    <path class="st28" id="路径24" d="M 21.462048396793154 36.45 C 19.762048396793155 37.05 18.162048396793153 37.650000000000006 16.362048396793153 38.05 C 16.662048396793153 38.75 16.862048396793153 39.349999999999994 17.162048396793153 39.95 C 19.462048396793154 39.349999999999994 21.76204839679315 38.55 23.962048396793154 37.650000000000006 C 23.162048396793153 37.25 22.262048396793155 36.849999999999994 21.462048396793154 36.45  Z "/>
    <path class="st29" id="路径25" d="M 30.762048396793155 39.95 C 28.962048396793154 43.650000000000006 26.562048396793156 45.95 23.962048396793154 45.95 C 21.362048396793153 45.95 18.962048396793154 43.650000000000006 17.162048396793153 39.95 C 16.862048396793153 39.349999999999994 16.562048396793152 38.75 16.362048396793153 38.05 C 15.662048396793153 36.349999999999994 15.162048396793153 34.55 14.862048396793153 32.75 C 14.062048396793152 32.25 13.262048396793153 31.650000000000002 12.562048396793152 31.150000000000002 C 12.962048396793152 33.650000000000006 13.562048396793152 36.150000000000006 14.462048396793152 38.55 C 14.762048396793153 39.25 14.962048396793152 39.849999999999994 15.262048396793153 40.45 C 17.462048396793154 45.150000000000006 20.562048396793152 48.05 24.062048396793156 48.05 C 27.56204839679316 48.05 30.662048396793157 45.150000000000006 32.862048396793156 40.45 C 32.16204839679315 40.25 31.462048396793154 40.05 30.762048396793155 39.95  Z "/>
    <path class="st30" id="路径26" d="M 35.46204839679315 16.849999999999998 C 35.56204839679316 17.749999999999996 35.66204839679315 18.65 35.76204839679315 19.549999999999997 C 37.46204839679315 20.849999999999998 39.062048396793145 22.349999999999998 40.562048396793145 23.95 C 41.062048396793145 23.45 41.46204839679315 22.95 41.86204839679314 22.45 C 39.96204839679315 20.349999999999998 37.76204839679315 18.55 35.46204839679315 16.849999999999998  Z "/>
    <path class="st31" id="路径27" d="M 35.76204839679315 19.55 C 35.66204839679315 18.650000000000002 35.562048396793145 17.650000000000002 35.46204839679315 16.85 C 35.06204839679316 14.350000000000001 34.46204839679315 11.850000000000001 33.56204839679316 9.450000000000001 C 33.362048396793156 8.750000000000002 33.06204839679316 8.15 32.76204839679316 7.550000000000001 C 30.662048396793153 2.8499999999999996 27.462048396793154 -0.05000000000000071 23.962048396793154 -0.05000000000000071 C 20.462048396793154 -0.05000000000000071 17.362048396793153 2.8499999999999996 15.162048396793153 7.549999999999999 C 15.862048396793153 7.649999999999999 16.462048396793154 7.849999999999999 17.162048396793153 8.049999999999999 C 18.962048396793154 4.249999999999999 21.362048396793153 1.9499999999999993 23.962048396793154 1.9499999999999993 C 26.562048396793156 1.9499999999999993 28.962048396793154 4.249999999999999 30.762048396793155 7.949999999999999 C 31.062048396793156 8.549999999999999 31.362048396793156 9.149999999999999 31.562048396793156 9.85 C 32.26204839679316 11.549999999999999 32.76204839679316 13.35 33.06204839679316 15.149999999999999 C 33.26204839679316 16.049999999999997 33.362048396793156 16.95 33.56204839679316 17.849999999999998 C 33.862048396793156 19.849999999999998 33.96204839679315 21.849999999999998 33.96204839679315 23.849999999999998 C 33.96204839679315 25.849999999999998 33.862048396793156 27.849999999999998 33.56204839679316 29.849999999999998 C 33.46204839679315 30.749999999999996 33.26204839679316 31.65 33.06204839679316 32.55 C 32.66204839679315 34.349999999999994 32.16204839679315 36.150000000000006 31.562048396793156 37.849999999999994 C 32.26204839679316 38.05 32.862048396793156 38.14999999999999 33.56204839679316 38.25 C 34.46204839679315 35.849999999999994 35.06204839679316 33.349999999999994 35.46204839679315 30.849999999999998 C 35.56204839679316 29.95 35.66204839679315 29.049999999999997 35.76204839679315 28.15 C 35.862048396793156 26.95 35.96204839679315 25.45 35.96204839679315 23.95 C 35.96204839679315 22.45 35.862048396793156 20.95 35.76204839679315 19.55  Z "/>
    <path class="st32" id="路径28" d="M 7.3620483967931545 23.95 C 8.862048396793154 22.349999999999998 10.462048396793154 20.95 12.162048396793153 19.55 C 12.862048396793153 18.95 13.562048396793154 18.45 14.362048396793153 17.95 C 14.862048396793153 17.55 15.362048396793153 17.25 15.962048396793152 16.849999999999998 C 18.562048396793152 15.149999999999999 21.162048396793153 13.749999999999998 23.962048396793154 12.549999999999997 C 23.062048396793156 12.149999999999997 22.262048396793155 11.849999999999998 21.462048396793154 11.549999999999997 C 19.162048396793153 12.649999999999997 16.962048396793154 13.849999999999998 14.862048396793154 15.249999999999996 C 14.862048396793154 15.249999999999996 14.862048396793154 15.249999999999996 14.862048396793154 15.249999999999996 C 14.062048396793154 15.749999999999996 13.262048396793155 16.349999999999998 12.562048396793156 16.849999999999998 C 10.162048396793153 18.55 7.962048396793154 20.349999999999998 5.962048396793154 22.45 C 5.462048396793154 22.95 5.062048396793154 23.45 4.562048396793154 23.95 C 1.8620483967931536 27.15 0.16204839679315342 30.349999999999998 -0.037951603206845874 33.25 C -0.23795160320684589 35.25 0.4620483967931541 37.25 1.9620483967931541 38.64999999999999 C 3.6620483967931543 40.150000000000006 6.3620483967931545 40.95 9.762048396793155 40.95 C 11.562048396793156 40.95 13.462048396793154 40.75 15.162048396793155 40.349999999999994 C 14.862048396793154 39.75 14.562048396793156 39.05 14.362048396793154 38.45 C 9.462048396793154 39.349999999999994 5.3620483967931545 39.05 3.3620483967931545 37.150000000000006 C 2.3620483967931545 36.150000000000006 1.8620483967931545 34.85000000000001 2.0620483967931547 33.45 C 2.262048396793155 31.15 3.6620483967931547 28.349999999999998 6.062048396793155 25.55 C 6.3620483967931545 24.95 6.8620483967931545 24.45 7.3620483967931545 23.95  Z "/>
    <path class="st33" id="路径29" d="M 45.96204839679315 9.35 C 43.362048396793156 6.949999999999999 38.56204839679316 6.35 32.76204839679315 7.549999999999999 C 33.062048396793145 8.149999999999999 33.26204839679315 8.749999999999998 33.562048396793145 9.45 C 35.16204839679315 9.149999999999999 36.76204839679315 8.95 38.362048396793156 8.95 C 41.06204839679316 8.95 43.26204839679315 9.549999999999999 44.66204839679315 10.75 C 45.66204839679315 11.75 46.16204839679315 13.05 45.96204839679315 14.45 C 45.76204839679315 16.75 44.36204839679314 19.55 41.96204839679315 22.349999999999998 C 41.562048396793145 22.849999999999998 41.062048396793145 23.349999999999998 40.66204839679315 23.849999999999998 C 39.16204839679315 25.45 37.562048396793145 26.849999999999998 35.862048396793156 28.249999999999996 C 35.76204839679315 29.149999999999995 35.66204839679315 30.149999999999995 35.56204839679316 30.949999999999996 C 37.862048396793156 29.249999999999996 40.06204839679316 27.349999999999994 42.06204839679316 25.349999999999998 C 42.56204839679316 24.849999999999998 42.96204839679315 24.349999999999998 43.46204839679315 23.849999999999998 C 46.16204839679315 20.65 47.862048396793156 17.45 48.06204839679316 14.549999999999997 C 48.16204839679315 12.649999999999999 47.46204839679315 10.649999999999999 45.96204839679315 9.35  Z "/>
    <path class="st34" id="路径30" d="M 33.16204839679315 15.25 C 33.16204839679315 15.25 33.16204839679315 15.25 33.16204839679315 15.25 C 31.062048396793156 13.85 28.862048396793156 12.65 26.562048396793156 11.55 C 25.662048396793157 11.15 24.862048396793156 10.75 24.062048396793156 10.350000000000001 C 21.862048396793156 9.450000000000001 19.562048396793156 8.650000000000002 17.262048396793155 8.05 C 16.562048396793156 7.8500000000000005 15.862048396793154 7.750000000000001 15.262048396793155 7.550000000000001 C 9.362048396793154 6.35 4.562048396793154 6.949999999999999 1.9620483967931541 9.35 C 0.4620483967931541 10.75 -0.23795160320684605 12.75 -0.037951603206845874 14.75 C 0.16204839679315414 17.55 1.862048396793154 20.75 4.562048396793154 24.05 C 4.962048396793154 23.55 5.462048396793154 23.05 5.962048396793154 22.55 C 3.562048396793154 19.75 2.1620483967931543 16.95 1.9620483967931541 14.65 C 1.7620483967931542 13.25 2.262048396793154 11.850000000000001 3.262048396793154 10.95 C 4.662048396793154 9.549999999999999 6.8620483967931545 8.95 9.562048396793154 8.95 C 11.162048396793153 8.95 12.762048396793155 9.149999999999999 14.362048396793153 9.45 C 15.062048396793152 9.549999999999999 15.662048396793153 9.75 16.362048396793153 9.85 C 18.062048396793152 10.25 19.76204839679315 10.85 21.462048396793154 11.45 C 22.262048396793155 11.75 23.162048396793153 12.149999999999999 23.962048396793154 12.45 C 26.762048396793155 13.649999999999999 29.462048396793154 15.149999999999999 31.962048396793154 16.75 C 32.46204839679315 17.15 33.06204839679316 17.45 33.56204839679316 17.85 C 33.46204839679315 17.05 33.26204839679315 16.05 33.16204839679315 15.25  Z "/>
    <path class="st35" id="路径31" d="M 47.96204839679315 33.25 C 47.76204839679315 30.449999999999996 46.06204839679316 27.249999999999996 43.362048396793156 23.949999999999996 C 42.96204839679315 24.449999999999996 42.46204839679315 24.949999999999996 41.96204839679315 25.449999999999996 C 44.362048396793156 28.249999999999996 45.76204839679315 31.049999999999994 45.96204839679315 33.349999999999994 C 46.16204839679315 34.75 45.66204839679315 36.14999999999999 44.66204839679315 37.05 C 42.56204839679316 38.95 38.56204839679316 39.349999999999994 33.66204839679315 38.349999999999994 C 32.96204839679315 38.25 32.362048396793156 38.05 31.662048396793157 37.95 C 29.962048396793158 37.55 28.26204839679316 36.95 26.562048396793156 36.349999999999994 C 25.762048396793155 36.05 24.862048396793156 35.64999999999999 23.962048396793154 35.25 C 21.162048396793153 34.05 18.462048396793154 32.55 15.962048396793154 30.949999999999996 C 15.462048396793154 30.549999999999997 14.862048396793154 30.249999999999996 14.362048396793154 29.849999999999994 C 13.562048396793154 29.349999999999994 12.862048396793154 28.749999999999993 12.162048396793153 28.249999999999993 C 10.462048396793154 26.95 8.862048396793154 25.55 7.3620483967931545 23.95 C 6.8620483967931545 24.45 6.462048396793154 24.95 6.062048396793155 25.45 C 8.062048396793156 27.55 10.262048396793155 29.349999999999998 12.562048396793156 31.05 C 13.362048396793156 31.55 14.062048396793156 32.150000000000006 14.862048396793156 32.650000000000006 C 14.862048396793156 32.650000000000006 14.862048396793156 32.650000000000006 14.862048396793156 32.650000000000006 C 16.962048396793158 34.05 19.162048396793157 35.25 21.462048396793154 36.35000000000001 C 22.362048396793153 36.75 23.162048396793153 37.150000000000006 24.062048396793156 37.55000000000001 C 26.262048396793155 38.45 28.562048396793156 39.250000000000014 30.862048396793156 39.85000000000001 C 31.562048396793156 40.05000000000001 32.26204839679316 40.150000000000006 32.862048396793156 40.35000000000001 C 34.66204839679315 40.75 36.462048396793165 40.95 38.26204839679316 40.95 C 41.56204839679316 40.95 44.26204839679316 40.150000000000006 46.06204839679316 38.55000000000001 C 47.46204839679315 37.25 48.16204839679315 35.25 47.96204839679315 33.25  Z "/>
    <path class="st36" id="圆1" d="M 23.962048396793154 18.95 C 26.723448396793156 18.95 28.962048396793154 21.188599999999997 28.962048396793154 23.95 C 28.962048396793154 26.7114 26.723448396793156 28.95 23.962048396793154 28.95 C 21.200648396793152 28.95 18.962048396793154 26.7114 18.962048396793154 23.95 C 18.962048396793154 21.188599999999997 21.200648396793152 18.95 23.962048396793154 18.95  Z "/>
    <path class="st37" id="圆2" d="M 23.962048396793154 19.95 C 26.171168396793153 19.95 27.962048396793154 21.74088 27.962048396793154 23.95 C 27.962048396793154 26.159119999999998 26.171168396793153 27.95 23.962048396793154 27.95 C 21.752928396793155 27.95 19.962048396793154 26.159119999999998 19.962048396793154 23.95 C 19.962048396793154 21.74088 21.752928396793155 19.95 23.962048396793154 19.95  Z "/>
    <path class="st38" id="路径32" d="M 21.962048396793154 21.95 C 21.962048396793154 21.349999999999998 22.062048396793156 20.849999999999998 22.362048396793153 20.349999999999998 C 20.362048396793153 21.249999999999996 19.462048396793154 23.65 20.362048396793153 25.65 C 21.26204839679315 27.65 23.662048396793153 28.549999999999997 25.662048396793153 27.65 C 26.562048396793152 27.25 27.262048396793155 26.549999999999997 27.662048396793153 25.65 C 25.662048396793153 26.549999999999997 23.26204839679315 25.65 22.362048396793153 23.65 C 22.062048396793156 23.05 21.962048396793154 22.55 21.962048396793154 21.95  Z "/>
    <path class="st39" id="圆3" d="M 39.96204839679315 4.949999999999999 C 41.61888839679315 4.949999999999999 42.96204839679315 6.293159999999999 42.96204839679315 7.949999999999999 C 42.96204839679315 9.606839999999998 41.61888839679315 10.95 39.96204839679315 10.95 C 38.30520839679315 10.95 36.96204839679315 9.606839999999998 36.96204839679315 7.949999999999999 C 36.96204839679315 6.293159999999999 38.30520839679315 4.949999999999999 39.96204839679315 4.949999999999999  Z "/>
    <path class="st40" id="圆4" d="M 28.962048396793154 40.95 C 30.618888396793153 40.95 31.962048396793154 42.29316 31.962048396793154 43.95 C 31.962048396793154 45.606840000000005 30.618888396793153 46.95 28.962048396793154 46.95 C 27.305208396793155 46.95 25.962048396793154 45.606840000000005 25.962048396793154 43.95 C 25.962048396793154 42.29316 27.305208396793155 40.95 28.962048396793154 40.95  Z "/>
    <path class="st41" id="圆5" d="M 2.962048396793154 16.95 C 4.618888396793154 16.95 5.962048396793154 18.29316 5.962048396793154 19.95 C 5.962048396793154 21.60684 4.618888396793154 22.95 2.962048396793154 22.95 C 1.3052083967931543 22.95 -0.037951603206845874 21.60684 -0.037951603206845874 19.95 C -0.037951603206845874 18.29316 1.3052083967931543 16.95 2.962048396793154 16.95  Z "/>
    <path class="st42" id="圆6" d="M 2.962048396793154 17.95 C 4.066608396793154 17.95 4.962048396793154 18.84544 4.962048396793154 19.95 C 4.962048396793154 21.05456 4.066608396793154 21.95 2.962048396793154 21.95 C 1.8574883967931541 21.95 0.9620483967931541 21.05456 0.9620483967931541 19.95 C 0.9620483967931541 18.84544 1.8574883967931541 17.95 2.962048396793154 17.95  Z "/>
    <path class="st43" id="圆7" d="M 39.96204839679315 5.949999999999999 C 41.06660839679316 5.949999999999999 41.96204839679315 6.845439999999999 41.96204839679315 7.949999999999999 C 41.96204839679315 9.054559999999999 41.06660839679316 9.95 39.96204839679315 9.95 C 38.85748839679316 9.95 37.96204839679315 9.054559999999999 37.96204839679315 7.949999999999999 C 37.96204839679315 6.845439999999999 38.85748839679316 5.949999999999999 39.96204839679315 5.949999999999999  Z "/>
    <path class="st44" id="圆8" d="M 28.962048396793154 41.95 C 30.066608396793153 41.95 30.962048396793154 42.845439999999996 30.962048396793154 43.95 C 30.962048396793154 45.054559999999995 30.066608396793153 45.95 28.962048396793154 45.95 C 27.857488396793155 45.95 26.962048396793154 45.054559999999995 26.962048396793154 43.95 C 26.962048396793154 42.845439999999996 27.857488396793155 41.95 28.962048396793154 41.95  Z "/>
    <path class="st45" id="椭圆4" d="M 23.648318901983053 21.09422940611839 C 24.272969673688678 20.46913678976631 25.507808321948083 20.690323884808063 26.406378957954196 21.5882593691349 C 27.304949593960316 22.48619485346174 27.52700978379992 23.720876792398453 26.902359012094287 24.345969408750534 C 26.277708240388655 24.97106202510262 25.042869592129257 24.749874930060866 24.144298956123144 23.851939445734025 C 23.245728320117024 22.954003961407185 23.02366813027742 21.719322022470475 23.648318901983053 21.09422940611839  Z "/>
    <path class="st46" id="椭圆5" d="M 21.49869900080278 24.93540948033333 C 21.811024386655596 24.622863172157288 22.412607853849444 24.717632056265355 22.8423590275915 25.14707946181297 C 23.272110201333554 25.57652686736059 23.3673044393175 26.17804317341614 23.054979053464685 26.490589481592178 C 22.74265366761187 26.80313578976822 22.14107020041802 26.708366905660153 21.711319026675973 26.278919500112533 C 21.28156785293391 25.849472094564916 21.186373614949964 25.24795578850937 21.49869900080278 24.93540948033333  Z "/>
    <path class="st47" id="椭圆6" d="M 40.53452858063295 6.83282902240753 C 40.69069127355935 6.676555868319511 41.00731886409214 6.739764973786354 41.241728595224174 6.974009013175962 C 41.47613832635619 7.208253052565574 41.53957130228403 7.524835869006157 41.38340860935763 7.6811090230941765 C 41.227245916431215 7.837382177182196 40.91061832589844 7.774173071715353 40.67620859476641 7.539929032325741 C 40.441798863634375 7.305684992936133 40.37836588770655 6.98910217649555 40.53452858063295 6.83282902240753  Z "/>
    <path class="st48" id="椭圆7" d="M 3.5680288467080885 18.83942991495132 C 3.724191539634493 18.6831567608633 4.040819130167275 18.746365866330144 4.275228861299304 18.980609905719756 C 4.509638592431337 19.21485394510937 4.573071568359165 19.53143676154995 4.41690887543276 19.68770991563797 C 4.260746182506352 19.84398306972599 3.94411859197357 19.780773964259147 3.709708860841541 19.546529924869535 C 3.4752991297095104 19.312285885479927 3.4118661537816806 18.995703069039344 3.5680288467080885 18.83942991495132  Z "/>
    <path class="st49" id="椭圆8" d="M 29.575029436078808 42.81262930631637 C 29.731192129005215 42.656356152228355 30.047819719537998 42.719565257695194 30.28222945067003 42.9538092970848 C 30.516639181802056 43.18805333647441 30.580072157729887 43.504636152915 30.423909464803486 43.660909307003024 C 30.26774677187708 43.817182461091036 29.951119181344296 43.7539733556242 29.716709450212264 43.51972931623459 C 29.48229971908024 43.28548527684498 29.418866743152407 42.968902460404394 29.575029436078808 42.81262930631637  Z "/>
  </g>
</svg>